<svg width="180" height="183" viewBox="0 0 180 183" fill="none" xmlns="http://www.w3.org/2000/svg">
<path d="M90 180C139.706 180 180 139.706 180 90C180 40.2944 139.706 0 90 0C40.2944 0 0 40.2944 0 90C0 139.706 40.2944 180 90 180Z" fill="#D4E3FA"/>
<g filter="url(#filter0_d_864_12242)">
<mask id="mask0_864_12242" style="mask-type:alpha" maskUnits="userSpaceOnUse" x="0" y="0" width="180" height="180">
<path d="M90 180C139.706 180 180 139.706 180 90C180 40.2944 139.706 0 90 0C40.2944 0 0 40.2944 0 90C0 139.706 40.2944 180 90 180Z" fill="url(#paint0_linear_864_12242)"/>
</mask>
<g mask="url(#mask0_864_12242)">
<path d="M141.6 51.6001H38.3999C35.0862 51.6001 32.3999 54.2864 32.3999 57.6001V183.6C32.3999 186.914 35.0862 189.6 38.3999 189.6H141.6C144.914 189.6 147.6 186.914 147.6 183.6V57.6001C147.6 54.2864 144.914 51.6001 141.6 51.6001Z" fill="white"/>
</g>
</g>
<path d="M79.1999 63.6001H47.9999C46.0117 63.6001 44.3999 65.2119 44.3999 67.2001C44.3999 69.1883 46.0117 70.8001 47.9999 70.8001H79.1999C81.1881 70.8001 82.7999 69.1883 82.7999 67.2001C82.7999 65.2119 81.1881 63.6001 79.1999 63.6001Z" fill="#AECCF9"/>
<path d="M79.1999 114H47.9999C46.0117 114 44.3999 115.612 44.3999 117.6C44.3999 119.588 46.0117 121.2 47.9999 121.2H79.1999C81.1881 121.2 82.7999 119.588 82.7999 117.6C82.7999 115.612 81.1881 114 79.1999 114Z" fill="#AECCF9"/>
<path d="M129.6 81.6001H50.3996C47.7486 81.6001 45.5996 83.7491 45.5996 86.4001V98.4001C45.5996 101.051 47.7486 103.2 50.3996 103.2H129.6C132.251 103.2 134.4 101.051 134.4 98.4001V86.4001C134.4 83.7491 132.251 81.6001 129.6 81.6001Z" fill="#D4E3FA" stroke="#005CE6" stroke-width="2"/>
<path d="M129.6 130.8H50.3999C47.0862 130.8 44.3999 133.486 44.3999 136.8V146.4C44.3999 149.714 47.0862 152.4 50.3999 152.4H129.6C132.914 152.4 135.6 149.714 135.6 146.4V136.8C135.6 133.486 132.914 130.8 129.6 130.8Z" fill="#D4E3FA"/>
<path d="M63.5998 38.3998C66.2508 38.3998 68.3998 36.2508 68.3998 33.5998C68.3998 30.9488 66.2508 28.7998 63.5998 28.7998C60.9488 28.7998 58.7998 30.9488 58.7998 33.5998C58.7998 36.2508 60.9488 38.3998 63.5998 38.3998Z" fill="white"/>
<path d="M90.0002 38.3998C92.6512 38.3998 94.8002 36.2508 94.8002 33.5998C94.8002 30.9488 92.6512 28.7998 90.0002 28.7998C87.3492 28.7998 85.2002 30.9488 85.2002 33.5998C85.2002 36.2508 87.3492 38.3998 90.0002 38.3998Z" fill="#005CE6"/>
<path d="M116.4 38.3998C119.051 38.3998 121.2 36.2508 121.2 33.5998C121.2 30.9488 119.051 28.7998 116.4 28.7998C113.749 28.7998 111.6 30.9488 111.6 33.5998C111.6 36.2508 113.749 38.3998 116.4 38.3998Z" fill="white"/>
<path d="M103.201 105.6C106.514 105.6 109.201 102.914 109.201 99.6001C109.201 96.2864 106.514 93.6001 103.201 93.6001C99.887 93.6001 97.2007 96.2864 97.2007 99.6001C97.2007 102.914 99.887 105.6 103.201 105.6Z" fill="#AECCF9"/>
<path d="M107.889 125.244C106.929 125.244 106.033 125.244 105.217 125.192C104.212 125.124 103.245 124.78 102.422 124.198C101.6 123.616 100.954 122.819 100.556 121.893L95.4931 111.888C95.1218 111.456 94.9363 110.894 94.9773 110.325C95.0182 109.757 95.2821 109.228 95.7115 108.853C96.0633 108.57 96.5022 108.418 96.9535 108.422C97.2858 108.432 97.612 108.514 97.9097 108.661C98.2074 108.809 98.4695 109.02 98.6779 109.279L100.977 112.417L101.012 112.458V100.536C101.012 99.9444 101.247 99.3771 101.665 98.9589C102.083 98.5406 102.651 98.3057 103.242 98.3057C103.834 98.3057 104.401 98.5406 104.819 98.9589C105.237 99.3771 105.472 99.9444 105.472 100.536V108.336C105.446 108.049 105.481 107.76 105.573 107.486C105.665 107.213 105.813 106.962 106.007 106.75C106.201 106.537 106.438 106.367 106.702 106.251C106.965 106.135 107.25 106.075 107.539 106.075C107.827 106.075 108.112 106.135 108.376 106.251C108.639 106.367 108.876 106.537 109.07 106.75C109.265 106.962 109.413 107.213 109.505 107.486C109.597 107.76 109.631 108.049 109.605 108.336V109.962C109.579 109.675 109.613 109.386 109.705 109.112C109.798 108.839 109.945 108.588 110.14 108.376C110.334 108.163 110.571 107.993 110.835 107.877C111.098 107.761 111.383 107.701 111.671 107.701C111.96 107.701 112.245 107.761 112.508 107.877C112.772 107.993 113.009 108.163 113.203 108.376C113.398 108.588 113.545 108.839 113.638 109.112C113.73 109.386 113.764 109.675 113.738 109.962V111.215C113.712 110.928 113.746 110.638 113.838 110.365C113.93 110.092 114.078 109.841 114.273 109.629C114.467 109.416 114.704 109.246 114.967 109.13C115.231 109.013 115.516 108.953 115.804 108.953C116.092 108.953 116.378 109.013 116.641 109.13C116.905 109.246 117.142 109.416 117.336 109.629C117.53 109.841 117.678 110.092 117.77 110.365C117.862 110.638 117.897 110.928 117.871 111.215V118.819C117.83 121.158 116.773 125.101 113.054 125.101C112.784 125.113 110.497 125.245 107.894 125.245L107.889 125.244Z" fill="#005CE6" stroke="white"/>
<defs>
<filter id="filter0_d_864_12242" x="26.3999" y="42.6001" width="127.2" height="140.4" filterUnits="userSpaceOnUse" color-interpolation-filters="sRGB">
<feFlood flood-opacity="0" result="BackgroundImageFix"/>
<feColorMatrix in="SourceAlpha" type="matrix" values="0 0 0 0 0 0 0 0 0 0 0 0 0 0 0 0 0 0 127 0" result="hardAlpha"/>
<feOffset dy="-3"/>
<feGaussianBlur stdDeviation="3"/>
<feColorMatrix type="matrix" values="0 0 0 0 0.788235 0 0 0 0 0.803922 0 0 0 0 0.85098 0 0 0 0.349 0"/>
<feBlend mode="normal" in2="BackgroundImageFix" result="effect1_dropShadow_864_12242"/>
<feBlend mode="normal" in="SourceGraphic" in2="effect1_dropShadow_864_12242" result="shape"/>
</filter>
<linearGradient id="paint0_linear_864_12242" x1="90" y1="0" x2="90" y2="180" gradientUnits="userSpaceOnUse">
<stop stop-color="#E3ECFA"/>
<stop offset="1" stop-color="#DAE7FF"/>
</linearGradient>
</defs>
</svg>
