<?xml version="1.0" encoding="UTF-8"?>
<svg id="Layer_1" data-name="Layer 1" xmlns="http://www.w3.org/2000/svg" version="1.1" viewBox="0 0 18 18">
  <defs>
    <style>
      .cls-1 {
        fill: none;
        stroke: #a1a1a2;
        stroke-linecap: round;
        stroke-width: 1.5px;
      }
    </style>
  </defs>
  <path class="cls-1" d="M15.3,14.6L4,3.4M7.6,7.8c-.3.3-.5.7-.5,1.2,0,1,.8,1.8,1.8,1.8s.9-.2,1.2-.4M15.3,10.7c.6-.9.9-1.7.9-1.7,0,0-1.6-5.2-7.2-5.2s-.6,0-.9,0M13.1,13c-1,.7-2.4,1.1-4.1,1.1-5.5,0-7.2-5.1-7.2-5.1,0,0,.8-2.5,3.1-4.1"/>
</svg>