<svg width="24" height="24" viewBox="0 0 24 24" fill="none" xmlns="http://www.w3.org/2000/svg">
<path d="M1.65039 21.6003C1.65034 22.0145 1.98609 22.3503 2.40031 22.3504C2.81452 22.3504 3.15034 22.0147 3.15039 21.6005L1.65039 21.6003ZM2.4008 18L3.1508 18.0001L2.4008 18ZM13.2004 15.1504C13.6146 15.1504 13.9504 14.8146 13.9504 14.4004C13.9504 13.9862 13.6146 13.6504 13.2004 13.6504V15.1504ZM21.0701 17.9307C21.363 18.2236 21.8378 18.2236 22.1307 17.9307C22.4236 17.6378 22.4236 17.163 22.1307 16.8701L21.0701 17.9307ZM18.3123 13.0517C18.0195 12.7588 17.5446 12.7588 17.2517 13.0517C16.9588 13.3446 16.9588 13.8194 17.2517 14.1123L18.3123 13.0517ZM17.2518 16.87C16.9589 17.1629 16.9589 17.6377 17.2518 17.9306C17.5447 18.2235 18.0196 18.2235 18.3124 17.9306L17.2518 16.87ZM22.1308 14.1122C22.4237 13.8194 22.4237 13.3445 22.1308 13.0516C21.8379 12.7587 21.3631 12.7587 21.0702 13.0516L22.1308 14.1122ZM13.6504 6.00039C13.6504 7.5744 12.3744 8.85039 10.8004 8.85039V10.3504C13.2028 10.3504 15.1504 8.40283 15.1504 6.00039H13.6504ZM10.8004 8.85039C9.22638 8.85039 7.95039 7.5744 7.95039 6.00039H6.45039C6.45039 8.40283 8.39795 10.3504 10.8004 10.3504V8.85039ZM7.95039 6.00039C7.95039 4.42638 9.22638 3.15039 10.8004 3.15039V1.65039C8.39795 1.65039 6.45039 3.59795 6.45039 6.00039H7.95039ZM10.8004 3.15039C12.3744 3.15039 13.6504 4.42638 13.6504 6.00039H15.1504C15.1504 3.59795 13.2028 1.65039 10.8004 1.65039V3.15039ZM3.15039 21.6005L3.1508 18.0001L1.6508 17.9999L1.65039 21.6003L3.15039 21.6005ZM6.0008 13.6504C3.59855 13.6504 1.65107 15.5977 1.6508 17.9999L3.1508 18.0001C3.15097 16.4262 4.42691 15.1504 6.0008 15.1504V13.6504ZM6.0008 15.1504H13.2004V13.6504H6.0008V15.1504ZM22.1307 16.8701L20.2215 14.9609L19.1609 16.0215L21.0701 17.9307L22.1307 16.8701ZM20.2215 14.9609L18.3123 13.0517L17.2517 14.1123L19.1609 16.0215L20.2215 14.9609ZM18.3124 17.9306L20.2215 16.0215L19.1609 14.9609L17.2518 16.87L18.3124 17.9306ZM20.2215 16.0215L22.1308 14.1122L21.0702 13.0516L19.1609 14.9609L20.2215 16.0215Z" fill="#262627"/>
</svg>
