<svg width="100" height="117" viewBox="0 0 100 117" fill="none" xmlns="http://www.w3.org/2000/svg">
<path d="M50 116C77.6142 116 100 93.6142 100 66C100 38.3858 77.6142 16 50 16C22.3858 16 0 38.3858 0 66C0 93.6142 22.3858 116 50 116Z" fill="#D4E3FA"/>
<g filter="url(#filter0_d_864_11720)">
<path d="M78.5915 6.1521H21.3126C19.4734 6.1521 17.9824 7.65326 17.9824 9.50504V29.6227C17.9824 31.4745 19.4734 32.9756 21.3126 32.9756H78.5915C80.4307 32.9756 81.9216 31.4745 81.9216 29.6227V9.50504C81.9216 7.65326 80.4307 6.1521 78.5915 6.1521Z" fill="#005CE6"/>
</g>
<path d="M43.2915 13.5297H25.9747C24.8711 13.5297 23.9766 14.4304 23.9766 15.5415C23.9766 16.6525 24.8711 17.5532 25.9747 17.5532H43.2915C44.3951 17.5532 45.2896 16.6525 45.2896 15.5415C45.2896 14.4304 44.3951 13.5297 43.2915 13.5297Z" fill="#AECCF9"/>
<path d="M55.2801 22.2481H25.9747C24.8711 22.2481 23.9766 23.1488 23.9766 24.2598C23.9766 25.3709 24.8711 26.2716 25.9747 26.2716H55.2801C56.3837 26.2716 57.2782 25.3709 57.2782 24.2598C57.2782 23.1488 56.3837 22.2481 55.2801 22.2481Z" fill="white"/>
<mask id="mask0_864_11720" style="mask-type:alpha" maskUnits="userSpaceOnUse" x="0" y="16" width="100" height="100">
<path d="M50 116C77.6142 116 100 93.6143 100 66C100 38.3858 77.6142 16 50 16C22.3858 16 0 38.3858 0 66C0 93.6143 22.3858 116 50 116Z" fill="url(#paint0_linear_864_11720)"/>
</mask>
<g mask="url(#mask0_864_11720)">
<path d="M11.418 74.4661C11.418 71.8732 13.5199 69.7713 16.1128 69.7713H84.5017C87.0945 69.7713 89.1965 71.8732 89.1965 74.4661V101.761C89.1965 111.021 81.6896 118.528 72.4293 118.528H28.1851C18.9249 118.528 11.418 111.021 11.418 101.761V74.4661Z" fill="#0053CF"/>
<path d="M53.3981 38.9128C51.5532 37.5796 49.0614 37.5796 47.2165 38.9128L20.397 58.2952C18.3169 59.7985 17.813 62.1961 18.4729 64.2132H15.522C13.2554 64.2132 11.418 66.0507 11.418 68.3173V98.3125C11.418 106.408 17.9803 112.97 26.0754 112.97H74.5391C82.6341 112.97 89.1965 106.408 89.1965 98.3125V68.3173C89.1965 66.0507 87.359 64.2132 85.0924 64.2132H82.1417C82.8015 62.1961 82.2976 59.7985 80.2175 58.2952L53.3981 38.9128Z" fill="#005CE6"/>
<g filter="url(#filter1_d_864_11720)">
<path d="M78.9755 52.3287H21.1187C19.2609 52.3287 17.7549 53.845 17.7549 55.7154V126.838C17.7549 128.708 19.2609 130.224 21.1187 130.224H78.9755C80.8332 130.224 82.3392 128.708 82.3392 126.838V55.7154C82.3392 53.845 80.8332 52.3287 78.9755 52.3287Z" fill="white"/>
</g>
<path d="M43.0854 60.7056H25.8027C24.7014 60.7056 23.8086 61.6045 23.8086 62.7134C23.8086 63.8223 24.7014 64.7212 25.8027 64.7212H43.0854C44.1867 64.7212 45.0795 63.8223 45.0795 62.7134C45.0795 61.6045 44.1867 60.7056 43.0854 60.7056Z" fill="#AECCF9"/>
<path d="M55.0503 69.4055H25.8027C24.7014 69.4055 23.8086 70.3044 23.8086 71.4132C23.8086 72.5221 24.7014 73.421 25.8027 73.421H55.0503C56.1516 73.421 57.0444 72.5221 57.0444 71.4132C57.0444 70.3044 56.1516 69.4055 55.0503 69.4055Z" fill="#D4E3FA"/>
<path d="M43.0854 78.7783H25.8027C24.7014 78.7783 23.8086 79.6772 23.8086 80.7861C23.8086 81.895 24.7014 82.7939 25.8027 82.7939H43.0854C44.1867 82.7939 45.0795 81.895 45.0795 80.7861C45.0795 79.6772 44.1867 78.7783 43.0854 78.7783Z" fill="#AECCF9"/>
<path d="M55.0503 87.4784H25.8027C24.7014 87.4784 23.8086 88.3774 23.8086 89.4862C23.8086 90.5951 24.7014 91.494 25.8027 91.494H55.0503C56.1516 91.494 57.0444 90.5951 57.0444 89.4862C57.0444 88.3774 56.1516 87.4784 55.0503 87.4784Z" fill="#D4E3FA"/>
<path d="M11.418 124.524V80.6426L89.6608 124.524H11.418Z" fill="#AECCF9"/>
<path d="M89.6611 124.524V80.6426L11.4183 124.524H89.6611Z" fill="#AECCF9"/>
<path d="M46.9289 95.5771C48.9301 93.882 51.8634 93.882 53.8647 95.5771L85.0725 122.011C88.8855 125.241 86.6016 131.471 81.6046 131.471H19.1889C14.1919 131.471 11.908 125.241 15.721 122.011L46.9289 95.5771Z" fill="#D4E3FA"/>
</g>
<defs>
<filter id="filter0_d_864_11720" x="13.9583" y="0.115921" width="71.9877" height="34.8718" filterUnits="userSpaceOnUse" color-interpolation-filters="sRGB">
<feFlood flood-opacity="0" result="BackgroundImageFix"/>
<feColorMatrix in="SourceAlpha" type="matrix" values="0 0 0 0 0 0 0 0 0 0 0 0 0 0 0 0 0 0 127 0" result="hardAlpha"/>
<feOffset dy="-2.01206"/>
<feGaussianBlur stdDeviation="2.01206"/>
<feColorMatrix type="matrix" values="0 0 0 0 0.788235 0 0 0 0 0.803922 0 0 0 0 0.85098 0 0 0 0.349 0"/>
<feBlend mode="normal" in2="BackgroundImageFix" result="effect1_dropShadow_864_11720"/>
<feBlend mode="normal" in="SourceGraphic" in2="effect1_dropShadow_864_11720" result="shape"/>
</filter>
<filter id="filter1_d_864_11720" x="13.7308" y="46.2925" width="72.6322" height="85.944" filterUnits="userSpaceOnUse" color-interpolation-filters="sRGB">
<feFlood flood-opacity="0" result="BackgroundImageFix"/>
<feColorMatrix in="SourceAlpha" type="matrix" values="0 0 0 0 0 0 0 0 0 0 0 0 0 0 0 0 0 0 127 0" result="hardAlpha"/>
<feOffset dy="-2.01206"/>
<feGaussianBlur stdDeviation="2.01206"/>
<feColorMatrix type="matrix" values="0 0 0 0 0.788235 0 0 0 0 0.803922 0 0 0 0 0.85098 0 0 0 0.349 0"/>
<feBlend mode="normal" in2="BackgroundImageFix" result="effect1_dropShadow_864_11720"/>
<feBlend mode="normal" in="SourceGraphic" in2="effect1_dropShadow_864_11720" result="shape"/>
</filter>
<linearGradient id="paint0_linear_864_11720" x1="50" y1="16" x2="50" y2="116" gradientUnits="userSpaceOnUse">
<stop stop-color="#E3ECFA"/>
<stop offset="1" stop-color="#DAE7FF"/>
</linearGradient>
</defs>
</svg>
