<svg width="24" height="24" viewBox="0 0 24 24" fill="none" xmlns="http://www.w3.org/2000/svg">
<path d="M16.4 13V19.3714C16.4 20.3771 15.59 21.2 14.6 21.2H3.8C2.81 21.2 2 20.3771 2 19.3714V10.2286C2 9.22286 2.81 8.4 3.8 8.4H14M3.575 7.48571C3.575 4.4468 5.98357 2 8.975 2C10.8384 2 12.4757 2.94943 13.4455 4.4" stroke="#000000" stroke-width="1.5" stroke-linecap="round"/>
<path d="M17.8752 9.12515L17.8752 9.20088M10 14.7507L14.1235 10.5677C13.8098 9.75822 13.933 8.79109 14.1959 7.89264C14.8218 5.75292 17.0392 4.53308 19.1485 5.16805C21.2578 5.80302 22.4603 8.05235 21.8343 10.1921C21.2084 12.3318 18.991 13.5516 16.8817 12.9166L16.3409 12.817L12.2174 17L10 17L10 14.7507Z" stroke="#000000" stroke-width="1.5" stroke-linecap="round" stroke-linejoin="round"/>
</svg>
