<svg width="24" height="24" viewBox="0 0 24 24" fill="none" xmlns="http://www.w3.org/2000/svg">
<path d="M1 21.6004L1.0004 18C1.00063 16.0119 2.61234 14.4004 4.6004 14.4004H10.6M13 6.00039C13 7.98862 11.3882 9.60039 9.4 9.60039C7.41177 9.60039 5.8 7.98862 5.8 6.00039C5.8 4.01217 7.41177 2.40039 9.4 2.40039C11.3882 2.40039 13 4.01217 13 6.00039Z" stroke="#000000" stroke-width="1.5" stroke-linecap="round" stroke-linejoin="round"/>
<path d="M18.1877 13.8127L18.1877 13.901M9 20.3758L13.8108 15.4956C13.4448 14.5513 13.5885 13.4229 13.8952 12.3747C14.6254 9.87841 17.2124 8.45526 19.6732 9.19606C22.1341 9.93686 23.537 12.5611 22.8067 15.0574C22.0765 17.5537 19.4895 18.9769 17.0287 18.2361L16.3977 18.1199L11.5869 23L9 23L9 20.3758Z" stroke="#000000" stroke-width="1.5" stroke-linecap="round" stroke-linejoin="round"/>
</svg>
