<svg width="24" height="25" viewBox="0 0 24 25" fill="none" xmlns="http://www.w3.org/2000/svg">
<path d="M10 12.5C10 12.8956 10.1173 13.2822 10.3371 13.6111C10.5568 13.94 10.8692 14.1964 11.2346 14.3478C11.6001 14.4991 12.0022 14.5387 12.3902 14.4616C12.7781 14.3844 13.1345 14.1939 13.4142 13.9142C13.6939 13.6345 13.8844 13.2781 13.9616 12.8902C14.0387 12.5022 13.9991 12.1001 13.8478 11.7346C13.6964 11.3692 13.44 11.0568 13.1111 10.8371C12.7822 10.6173 12.3956 10.5 12 10.5C11.4696 10.5 10.9609 10.7107 10.5858 11.0858C10.2107 11.4609 10 11.9696 10 12.5ZM10 19.5C10 19.8956 10.1173 20.2822 10.3371 20.6111C10.5568 20.94 10.8692 21.1964 11.2346 21.3478C11.6001 21.4991 12.0022 21.5387 12.3902 21.4616C12.7781 21.3844 13.1345 21.1939 13.4142 20.9142C13.6939 20.6345 13.8844 20.2781 13.9616 19.8902C14.0387 19.5022 13.9991 19.1001 13.8478 18.7346C13.6964 18.3692 13.44 18.0568 13.1111 17.8371C12.7822 17.6173 12.3956 17.5 12 17.5C11.4696 17.5 10.9609 17.7107 10.5858 18.0858C10.2107 18.4609 10 18.9696 10 19.5ZM10 5.5C10 5.89556 10.1173 6.28224 10.3371 6.61114C10.5568 6.94004 10.8692 7.19638 11.2346 7.34776C11.6001 7.49913 12.0022 7.53874 12.3902 7.46157C12.7781 7.3844 13.1345 7.19392 13.4142 6.91421C13.6939 6.63451 13.8844 6.27814 13.9616 5.89018C14.0387 5.50222 13.9991 5.10008 13.8478 4.73463C13.6964 4.36918 13.44 4.05682 13.1111 3.83706C12.7822 3.6173 12.3956 3.5 12 3.5C11.4696 3.5 10.9609 3.71071 10.5858 4.08579C10.2107 4.46086 10 4.96957 10 5.5Z" fill="#5C5C5D"/>
</svg>
