<svg width="25" height="24" viewBox="0 0 25 24" fill="none" xmlns="http://www.w3.org/2000/svg">
<path fill-rule="evenodd" clip-rule="evenodd" d="M2.5 3C6.40667 3 8.75444 2.866 12.5 0C16.2456 2.866 18.5933 3 22.5 3V14.535C22.5 18.4904 19.8721 19.9337 15.0456 22.5845C14.2554 23.0186 13.4062 23.4849 12.5 24C11.5938 23.4849 10.7446 23.0186 9.95442 22.5845C5.12793 19.9337 2.5 18.4904 2.5 14.535V3ZM13.8189 6.6662C13.7924 6.39822 13.7788 6.26422 13.7251 6.15987C13.6565 6.02687 13.542 5.92331 13.4028 5.86842C13.2941 5.8252 13.1595 5.8252 12.8902 5.8252H12.1098C11.8405 5.8252 11.7059 5.8252 11.5966 5.86842C11.4578 5.92328 11.3435 6.0266 11.2749 6.15925C11.2212 6.26422 11.2076 6.39822 11.1811 6.66559C11.1304 7.17254 11.1045 7.4257 10.9995 7.56464C10.9334 7.65149 10.8454 7.71926 10.7445 7.76102C10.6436 7.80278 10.5335 7.81705 10.4253 7.80237C10.2527 7.77895 10.0562 7.61843 9.66335 7.29748L9.66082 7.29542C9.45273 7.12499 9.34838 7.03978 9.23662 7.00397C9.09427 6.95848 8.94026 6.96616 8.80314 7.02558C8.69615 7.07143 8.60187 7.16572 8.4154 7.35219L8.40981 7.35778L7.85778 7.90919C7.6676 8.09938 7.57251 8.19509 7.52558 8.30253C7.46616 8.43964 7.45848 8.59365 7.50397 8.736C7.53962 8.84788 7.62423 8.95119 7.79314 9.15743L7.79542 9.16021L7.80443 9.17125C8.12076 9.55908 8.27974 9.75399 8.30299 9.92588C8.31744 10.0339 8.30306 10.1438 8.26131 10.2444C8.21955 10.3451 8.15191 10.4329 8.06526 10.4989C7.92642 10.605 7.67288 10.6304 7.16723 10.681L7.1662 10.6811C6.89822 10.7076 6.76422 10.7212 6.65987 10.7749C6.52687 10.8435 6.42331 10.958 6.36842 11.0972C6.3252 11.2059 6.3252 11.3405 6.3252 11.6098V12.3902C6.3252 12.6595 6.3252 12.7941 6.36904 12.9034C6.42374 13.0421 6.52683 13.1564 6.65925 13.2251C6.76422 13.2788 6.89822 13.2924 7.16559 13.3189L7.1661 13.319C7.67271 13.3696 7.92637 13.3949 8.06526 13.5011C8.1518 13.5672 8.21932 13.655 8.26096 13.7557C8.30261 13.8563 8.31689 13.9662 8.30237 14.0741C8.27952 14.2476 8.11836 14.4446 7.79542 14.8392C7.62499 15.0473 7.53978 15.1516 7.50397 15.2634C7.45848 15.4057 7.46616 15.5597 7.52558 15.6969C7.57251 15.8049 7.6676 15.9 7.85778 16.0902L8.40981 16.6422C8.59938 16.8324 8.69509 16.9275 8.80314 16.9744C8.94026 17.0338 9.09427 17.0415 9.23662 16.996C9.34838 16.9602 9.45273 16.875 9.66082 16.704L9.66334 16.7019C10.0562 16.381 10.2527 16.2204 10.4259 16.1976C10.5338 16.1831 10.6437 16.1974 10.7443 16.239C10.845 16.2807 10.9328 16.3482 10.9989 16.4347C11.1051 16.5743 11.1304 16.8275 11.1811 17.3338C11.2076 17.6018 11.2212 17.7358 11.2749 17.8401C11.3435 17.9731 11.458 18.0767 11.5972 18.1316C11.7059 18.1748 11.8405 18.1748 12.1098 18.1748H12.8902C13.1595 18.1748 13.2941 18.1748 13.4034 18.1316C13.5423 18.0766 13.6567 17.973 13.7251 17.8401C13.7788 17.7358 13.7924 17.6018 13.8189 17.3338C13.8696 16.8268 13.8949 16.5737 14.0011 16.4347C14.0673 16.3481 14.1552 16.2805 14.256 16.2389C14.3567 16.1972 14.4667 16.183 14.5747 16.1976C14.7473 16.2204 14.9438 16.381 15.3367 16.7019L15.3392 16.704C15.5473 16.8744 15.6516 16.9596 15.7634 16.9954C15.9057 17.0409 16.0597 17.0332 16.1969 16.9738C16.3049 16.9275 16.4 16.8324 16.5902 16.6416L17.1422 16.0902C17.3324 15.9 17.4275 15.8049 17.4744 15.6969C17.5338 15.5597 17.5415 15.4057 17.496 15.2634C17.4604 15.1515 17.3758 15.0482 17.2069 14.8419L17.2046 14.8392C16.8823 14.4452 16.7211 14.2476 16.6976 14.0747C16.683 13.9667 16.6972 13.8567 16.7389 13.756C16.7805 13.6552 16.8481 13.5673 16.9347 13.5011C17.0743 13.3949 17.3275 13.3696 17.8338 13.3189H17.8338C18.1018 13.2924 18.2358 13.2788 18.3401 13.2251C18.4731 13.1565 18.5767 13.042 18.6316 12.9028C18.6748 12.7941 18.6748 12.6595 18.6748 12.3902V11.6098C18.6748 11.3405 18.6748 11.2059 18.631 11.0966C18.5763 10.9579 18.4732 10.8436 18.3407 10.7749C18.2358 10.7212 18.1018 10.7076 17.8344 10.6811L17.8339 10.681C17.3273 10.6304 17.0736 10.6051 16.9347 10.4989C16.8481 10.4329 16.7804 10.3451 16.7387 10.2444C16.6969 10.1438 16.6826 10.0339 16.697 9.92588C16.7205 9.75237 16.8816 9.55539 17.2046 9.16082C17.375 8.95273 17.4602 8.84838 17.496 8.73662C17.5415 8.59427 17.5338 8.44026 17.4744 8.30314C17.4275 8.19509 17.3324 8.1 17.1422 7.90981L17.1422 7.90981L16.5902 7.35778C16.4006 7.1676 16.3049 7.07251 16.1969 7.02558C16.0597 6.96616 15.9057 6.95848 15.7634 7.00397C15.6516 7.03978 15.5473 7.12499 15.3392 7.29603C14.9452 7.61836 14.7476 7.77952 14.5747 7.80237C14.4667 7.81701 14.3567 7.80278 14.256 7.76113C14.1552 7.71948 14.0673 7.6519 14.0011 7.56526C13.8949 7.42571 13.8696 7.17254 13.8189 6.66621V6.6662ZM14.2465 13.7465C13.7833 14.2097 13.1551 14.4699 12.5 14.4699C11.8449 14.4699 11.2167 14.2097 10.7535 13.7465C10.2903 13.2833 10.0301 12.6551 10.0301 12C10.0301 11.3449 10.2903 10.7167 10.7535 10.2535C11.2167 9.7903 11.8449 9.53008 12.5 9.53008C13.1551 9.53008 13.7833 9.7903 14.2465 10.2535C14.7097 10.7167 14.9699 11.3449 14.9699 12C14.9699 12.6551 14.7097 13.2833 14.2465 13.7465Z" fill="#262627"/>
</svg>
