<svg width="24" height="24" viewBox="0 0 24 24" fill="none" xmlns="http://www.w3.org/2000/svg">
<path d="M12.0004 17.4004V11.4004M19.6804 17.7604C18.62 17.7604 17.7604 18.62 17.7604 19.6804C17.7604 20.7408 18.62 21.6004 19.6804 21.6004C20.7408 21.6004 21.6004 20.7408 21.6004 19.6804C21.6004 18.62 20.7408 17.7604 19.6804 17.7604ZM19.6804 17.7604L19.6804 12.2404C19.6804 11.7102 19.2506 11.2804 18.7204 11.2804H5.28039C4.7502 11.2804 4.32039 11.7102 4.32039 12.2404L4.32039 17.7604M4.32039 17.7604C3.26 17.7604 2.40039 18.62 2.40039 19.6804C2.40039 20.7408 3.26 21.6004 4.32039 21.6004C5.38078 21.6004 6.24039 20.7408 6.24039 19.6804C6.24039 18.62 5.38078 17.7604 4.32039 17.7604ZM12.0004 21.6004C10.94 21.6004 10.0804 20.7408 10.0804 19.6804C10.0804 18.62 10.94 17.7604 12.0004 17.7604C13.0608 17.7604 13.9204 18.62 13.9204 19.6804C13.9204 20.7408 13.0608 21.6004 12.0004 21.6004ZM6.00039 7.20039H18.0004C18.6631 7.20039 19.2004 6.66313 19.2004 6.00039V3.60039C19.2004 2.93765 18.6631 2.40039 18.0004 2.40039H6.00039C5.33765 2.40039 4.80039 2.93765 4.80039 3.60039V6.00039C4.80039 6.66313 5.33765 7.20039 6.00039 7.20039Z" stroke="#000000
" stroke-width="1.5" stroke-linecap="round"/>
</svg>
