<svg width="21" height="24" viewBox="0 0 21 24" fill="none" xmlns="http://www.w3.org/2000/svg">
<path fill-rule="evenodd" clip-rule="evenodd" d="M0.5 3C4.40667 3 6.75444 2.866 10.5 0C14.2456 2.866 16.5933 3 20.5 3V14.535C20.5 18.4904 17.8721 19.9337 13.0456 22.5845C12.2554 23.0186 11.4062 23.4849 10.5 24C9.5938 23.4849 8.74464 23.0186 7.95442 22.5845C3.12793 19.9337 0.5 18.4904 0.5 14.535V3ZM11.8192 6.6662C11.7926 6.39822 11.779 6.26422 11.7253 6.15987C11.6567 6.02687 11.5422 5.92331 11.403 5.86842C11.2943 5.8252 11.1597 5.8252 10.8905 5.8252H10.11C9.84077 5.8252 9.70616 5.8252 9.59687 5.86842C9.458 5.92328 9.34371 6.0266 9.27516 6.15925C9.22144 6.26422 9.20786 6.39822 9.18131 6.66559C9.13067 7.17254 9.10474 7.4257 8.99977 7.56464C8.93361 7.65149 8.84561 7.71926 8.74473 7.76102C8.64385 7.80278 8.5337 7.81705 8.42551 7.80237C8.25298 7.77895 8.05648 7.61843 7.66359 7.29748L7.66107 7.29542C7.45298 7.12499 7.34862 7.03978 7.23686 7.00397C7.09451 6.95848 6.9405 6.96616 6.80339 7.02558C6.69639 7.07143 6.60211 7.16572 6.41565 7.35219L6.41005 7.35778L5.85803 7.90919C5.66784 8.09938 5.57275 8.19509 5.52582 8.30253C5.4664 8.43964 5.45872 8.59365 5.50421 8.736C5.53986 8.84788 5.62448 8.95119 5.79339 9.15743L5.79566 9.16021L5.80467 9.17125C6.121 9.55908 6.27998 9.75399 6.30323 9.92588C6.31768 10.0339 6.3033 10.1438 6.26155 10.2444C6.2198 10.3451 6.15216 10.4329 6.0655 10.4989C5.92666 10.605 5.67312 10.6304 5.16747 10.681L5.16645 10.6811C4.89846 10.7076 4.76447 10.7212 4.66011 10.7749C4.52712 10.8435 4.42355 10.958 4.36866 11.0972C4.32544 11.2059 4.32544 11.3405 4.32544 11.6098V12.3902C4.32544 12.6595 4.32544 12.7941 4.36928 12.9034C4.42399 13.0421 4.52708 13.1564 4.6595 13.2251C4.76447 13.2788 4.89846 13.2924 5.16583 13.3189L5.16635 13.319C5.67295 13.3696 5.92661 13.3949 6.0655 13.5011C6.15205 13.5672 6.21957 13.655 6.26121 13.7557C6.30285 13.8563 6.31714 13.9662 6.30261 14.0741C6.27977 14.2476 6.1186 14.4446 5.79566 14.8392C5.62524 15.0473 5.54002 15.1516 5.50421 15.2634C5.45872 15.4057 5.4664 15.5597 5.52582 15.6969C5.57275 15.8049 5.66784 15.9 5.85803 16.0902L6.41005 16.6422C6.59962 16.8324 6.69533 16.9275 6.80339 16.9744C6.9405 17.0338 7.09451 17.0415 7.23686 16.996C7.34862 16.9602 7.45298 16.875 7.66107 16.704L7.66358 16.7019C8.05648 16.381 8.25298 16.2204 8.42613 16.1976C8.53407 16.1831 8.64393 16.1974 8.74456 16.239C8.8452 16.2807 8.93303 16.3482 8.99915 16.4347C9.10536 16.5743 9.13067 16.8275 9.18131 17.3338C9.20786 17.6018 9.22144 17.7358 9.27516 17.8401C9.34374 17.9731 9.45828 18.0767 9.59749 18.1316C9.70616 18.1748 9.84077 18.1748 10.11 18.1748H10.8905C11.1597 18.1748 11.2943 18.1748 11.4036 18.1316C11.5426 18.0766 11.6569 17.973 11.7253 17.8401C11.779 17.7358 11.7926 17.6018 11.8192 17.3338C11.8698 16.8268 11.8951 16.5737 12.0013 16.4347C12.0675 16.3481 12.1554 16.2805 12.2562 16.2389C12.357 16.1972 12.4669 16.183 12.575 16.1976C12.7475 16.2204 12.944 16.381 13.3369 16.7019L13.3394 16.704C13.5475 16.8744 13.6519 16.9596 13.7636 16.9954C13.906 17.0409 14.06 17.0332 14.1971 16.9738C14.3052 16.9275 14.4003 16.8324 14.5904 16.6416L15.1425 16.0902C15.3326 15.9 15.4277 15.8049 15.4747 15.6969C15.5341 15.5597 15.5418 15.4057 15.4963 15.2634C15.4606 15.1515 15.376 15.0482 15.2071 14.8419L15.2048 14.8392C14.8825 14.4452 14.7213 14.2476 14.6979 14.0747C14.6832 13.9667 14.6975 13.8567 14.7391 13.756C14.7808 13.6552 14.8483 13.5673 14.935 13.5011C15.0745 13.3949 15.3277 13.3696 15.834 13.3189H15.834C16.102 13.2924 16.236 13.2788 16.3404 13.2251C16.4734 13.1565 16.5769 13.042 16.6318 12.9028C16.675 12.7941 16.675 12.6595 16.675 12.3902V11.6098C16.675 11.3405 16.675 11.2059 16.6312 11.0966C16.5765 10.9579 16.4734 10.8436 16.341 10.7749C16.236 10.7212 16.102 10.7076 15.8347 10.6811L15.8341 10.681C15.3275 10.6304 15.0739 10.6051 14.935 10.4989C14.8483 10.4329 14.7807 10.3451 14.7389 10.2444C14.6972 10.1438 14.6828 10.0339 14.6973 9.92588C14.7207 9.75237 14.8819 9.55539 15.2048 9.16082C15.3753 8.95273 15.4605 8.84838 15.4963 8.73662C15.5418 8.59427 15.5341 8.44026 15.4747 8.30314C15.4277 8.19509 15.3326 8.1 15.1425 7.90981L15.1425 7.90981L14.5904 7.35778C14.4009 7.1676 14.3052 7.07251 14.1971 7.02558C14.06 6.96616 13.906 6.95848 13.7636 7.00397C13.6519 7.03978 13.5475 7.12499 13.3394 7.29603C12.9455 7.61836 12.7479 7.77952 12.575 7.80237C12.4669 7.81701 12.357 7.80278 12.2562 7.76113C12.1554 7.71948 12.0675 7.6519 12.0013 7.56526C11.8951 7.42571 11.8698 7.17254 11.8192 6.66621V6.6662ZM12.2467 13.7465C11.7835 14.2097 11.1553 14.4699 10.5002 14.4699C9.84518 14.4699 9.21695 14.2097 8.75375 13.7465C8.29054 13.2833 8.03032 12.6551 8.03032 12C8.03032 11.3449 8.29054 10.7167 8.75375 10.2535C9.21695 9.7903 9.84518 9.53008 10.5002 9.53008C11.1553 9.53008 11.7835 9.7903 12.2467 10.2535C12.7099 10.7167 12.9702 11.3449 12.9702 12C12.9702 12.6551 12.7099 13.2833 12.2467 13.7465Z" fill="#000000"/>
</svg>
