<svg width="21" height="14" viewBox="0 0 21 14" fill="none" xmlns="http://www.w3.org/2000/svg">
<path d="M8.627 10.6C7.938 11.797 8.402 12.78 9.359 13.332C10.315 13.885 11.4 13.797 12.091 12.6C12.78 11.405 17.138 0.73497 16.759 0.51597C16.38 0.29697 9.317 9.40397 8.627 10.6ZM10.5 2.99997C10.938 2.99997 11.364 3.03697 11.781 3.10897C12.219 2.55997 12.709 1.95497 13.186 1.38097C12.313 1.12831 11.4088 1.00004 10.5 0.99997C4.893 0.99997 0.5 5.72897 0.5 11.766C0.5 12.137 0.516 12.508 0.549 12.869C0.598 13.42 1.089 13.824 1.633 13.777C2.184 13.726 2.59 13.242 2.541 12.691C2.51369 12.3834 2.50001 12.0748 2.5 11.766C2.5 6.84997 6.014 2.99997 10.5 2.99997ZM17.719 4.24997C17.44 4.99997 17.145 5.76397 16.885 6.42397C17.9 7.89397 18.5 9.73797 18.5 11.766C18.5 12.082 18.485 12.401 18.457 12.709C18.4441 12.967 18.5315 13.22 18.7008 13.4151C18.8702 13.6101 19.1084 13.7322 19.3657 13.7557C19.6229 13.7792 19.8793 13.7023 20.0812 13.5412C20.2831 13.38 20.4149 13.147 20.449 12.891C20.482 12.521 20.5 12.143 20.5 11.766C20.5 8.81197 19.447 6.17597 17.719 4.24997Z" fill="#262627"/>
</svg>
