<svg width="14" height="14" viewBox="0 0 14 14" fill="none" xmlns="http://www.w3.org/2000/svg">
<path d="M6.66339 0.809493C6.8011 0.530462 7.19899 0.530462 7.3367 0.809493L9.11937 4.42158C9.17406 4.53238 9.27976 4.60918 9.40204 4.62695L13.3882 5.20617C13.6961 5.25092 13.8191 5.62933 13.5963 5.84653L10.7119 8.65814C10.6234 8.74439 10.583 8.86865 10.6039 8.99044L11.2848 12.9605C11.3374 13.2672 11.0155 13.5011 10.7401 13.3563L7.17475 11.4819C7.06538 11.4244 6.93472 11.4244 6.82535 11.4819L3.26001 13.3563C2.98459 13.5011 2.66269 13.2672 2.71529 12.9605L3.39621 8.99044C3.4171 8.86865 3.37672 8.74439 3.28824 8.65814L0.403822 5.84653C0.181003 5.62933 0.303958 5.25092 0.611886 5.20617L4.59806 4.62695C4.72033 4.60918 4.82604 4.53238 4.88073 4.42158L6.66339 0.809493Z" fill="#FAAD14"/>
</svg>
