<svg width="58" height="24" viewBox="0 0 58 24" fill="none" xmlns="http://www.w3.org/2000/svg">
<path d="M49.885 20.5835C49.4418 20.598 49.0004 20.5208 48.5881 20.3568C48.1758 20.1927 47.8015 19.9452 47.4883 19.6296L57.1975 13.9897C57.2659 13.9505 57.3259 13.8981 57.3741 13.8355C57.4223 13.773 57.4578 13.7015 57.4785 13.6252C57.4993 13.5488 57.5048 13.4691 57.4949 13.3906C57.4849 13.3121 57.4597 13.2364 57.4206 13.1677L56.8608 12.2182C56.1563 11.0438 55.1581 10.0753 53.9655 9.40921C52.7752 8.72717 51.43 8.36531 50.0599 8.3586C49.0483 8.34505 48.0439 8.53222 47.1043 8.90937C46.1647 9.28653 45.3084 9.84626 44.5843 10.5565C43.8401 11.2759 43.2501 12.1408 42.8507 13.0978C42.4514 14.0549 42.251 15.0839 42.2619 16.1217C42.2321 17.1602 42.4138 18.1938 42.7959 19.1592C43.1779 20.1245 43.7523 21.0011 44.4837 21.7352C45.1867 22.4589 46.0279 23.0324 46.9568 23.4214C47.8856 23.8105 48.8831 24.0069 49.8894 23.9991C51.2495 24.0136 52.5918 23.6873 53.7949 23.0496C54.9181 22.4613 55.8636 21.5808 56.5328 20.5C56.5574 20.4663 56.5749 20.428 56.5843 20.3872C56.5937 20.3465 56.5948 20.3043 56.5874 20.2632C56.5801 20.2221 56.5644 20.1829 56.5415 20.148C56.5186 20.1131 56.4888 20.0833 56.454 20.0604L54.1011 18.5658C53.6009 19.2064 52.96 19.7219 52.2286 20.0719C51.4972 20.422 50.695 20.5971 49.885 20.5835ZM45.9707 14.5304C46.3048 13.7385 46.8786 13.0725 47.6108 12.627C48.3569 12.0956 49.2673 11.8493 50.178 11.9324C50.6586 11.9229 51.1351 12.0219 51.5726 12.2219C52.0101 12.422 52.3974 12.7182 52.7059 13.0886L45.8876 17.0976C45.7327 16.6851 45.6607 16.2458 45.6757 15.8052C45.6907 15.3646 45.7925 14.9313 45.9751 14.5304H45.9707Z" fill="#005CE6"/>
<path d="M18.3965 0H0.801774C0.721739 0 0.644984 0.0319562 0.58839 0.0888388C0.531797 0.145721 0.5 0.222871 0.5 0.303315V3.11667C0.5 3.19712 0.531797 3.27427 0.58839 3.33115C0.644984 3.38803 0.721739 3.41999 0.801774 3.41999H7.83003V21.8827L10.8915 23.6718C10.937 23.6948 10.9875 23.7058 11.0383 23.7039C11.0892 23.702 11.1388 23.6873 11.1824 23.6609C11.2261 23.6346 11.2624 23.5976 11.288 23.5534C11.3136 23.5092 11.3276 23.4592 11.3288 23.408V3.41999H18.3615C18.4415 3.41999 18.5183 3.38803 18.5749 3.33115C18.6315 3.27427 18.6632 3.19712 18.6632 3.11667V0.303315C18.6637 0.228609 18.6368 0.156344 18.5876 0.100372C18.5383 0.0444009 18.4703 0.00866011 18.3965 0Z" fill="#005CE6"/>
<path d="M17.0224 23.6905H19.9046C19.9846 23.6905 20.0614 23.6586 20.118 23.6017C20.1746 23.5448 20.2064 23.4677 20.2064 23.3872V11.4964C20.2044 11.4456 20.1899 11.3961 20.164 11.3525C20.1381 11.3089 20.1017 11.2725 20.0581 11.2467C20.0146 11.2209 19.9653 11.2064 19.9148 11.2048C19.8643 11.2031 19.8141 11.2142 19.769 11.237L16.7382 12.9954V23.3652C16.7352 23.4051 16.7401 23.4452 16.7525 23.4831C16.765 23.5211 16.7848 23.5562 16.8108 23.5864C16.8368 23.6166 16.8685 23.6414 16.9041 23.6592C16.9397 23.6771 16.9784 23.6878 17.0181 23.6905H17.0224Z" fill="#005CE6"/>
<path d="M35.9645 10.0296C35.3732 9.45981 34.6729 9.01674 33.906 8.72732C33.1391 8.43789 32.3218 8.30817 31.5035 8.34601C30.4734 8.31336 29.4479 8.49837 28.4934 8.8891C27.5388 9.27982 26.6765 9.86755 25.9622 10.6143C25.2478 11.3464 24.6862 12.2147 24.3107 13.1682C23.9351 14.1217 23.7532 15.141 23.7755 16.1663C23.7421 17.1982 23.9189 18.226 24.2949 19.1868C24.6709 20.1476 25.2383 21.021 25.9622 21.7534C26.6802 22.4881 27.5415 23.0657 28.492 23.45C29.4426 23.8343 30.4619 24.0169 31.486 23.9865C32.127 23.9919 32.7661 23.9166 33.3885 23.7623C33.4451 23.7478 33.4996 23.7256 33.5503 23.6964L39.4633 20.2852V0.301568C39.4614 0.250797 39.4468 0.201325 39.4209 0.157692C39.395 0.114058 39.3586 0.0776623 39.3151 0.0518448C39.2715 0.0260273 39.2223 0.0116154 39.1717 0.00993216C39.1212 0.0082489 39.0711 0.0193482 39.0259 0.0422111L35.9645 1.80056V10.0296ZM34.7224 19.261C34.3267 19.6674 33.8552 19.9915 33.3349 20.2148C32.8145 20.4381 32.2556 20.5561 31.6898 20.5622C31.1241 20.5684 30.5627 20.4624 30.0377 20.2505C29.5127 20.0385 29.0344 19.7247 28.6301 19.3269L28.5164 19.2126C28.1137 18.8094 27.795 18.3297 27.5787 17.8014C27.3625 17.2731 27.253 16.7068 27.2568 16.1355C27.2467 15.5602 27.3501 14.9885 27.561 14.4536C27.772 13.9186 28.0863 13.431 28.4857 13.0188C28.8951 12.5945 29.3884 12.2611 29.9338 12.0401C30.4791 11.819 31.0645 11.7152 31.6522 11.7352C32.2218 11.7225 32.7878 11.8284 33.3147 12.0463C33.8416 12.2642 34.3179 12.5893 34.7136 13.0012C35.5121 13.8439 35.9574 14.963 35.9574 16.1267C35.9574 17.2904 35.5121 18.4095 34.7136 19.2522L34.7224 19.261Z" fill="#005CE6"/>
</svg>
